<svg width="1200" height="400" viewBox="0 0 1200 400" fill="none" xmlns="http://www.w3.org/2000/svg" role="img" aria-labelledby="title desc">
  <title id="title">Isa Greco — kawaii developer profile</title>
  <desc id="desc">A pastel coding desk scene with a cute AI robot companion.</desc>
  <defs>
    <linearGradient id="bg" x1="0" y1="0" x2="1200" y2="400" gradientUnits="userSpaceOnUse">
      <stop stop-color="#FFF4FB"/><stop offset=".53" stop-color="#F2F5FF"/><stop offset="1" stop-color="#EEFBFF"/>
    </linearGradient>
    <linearGradient id="screen" x1="765" y1="135" x2="1085" y2="310" gradientUnits="userSpaceOnUse">
      <stop stop-color="#7A6BCB"/><stop offset="1" stop-color="#A18BE3"/>
    </linearGradient>
    <filter id="shadow" x="-30%" y="-30%" width="160%" height="160%">
      <feDropShadow dx="0" dy="8" stdDeviation="8" flood-color="#C890BB" flood-opacity=".22"/>
    </filter>
  </defs>
  <rect width="1200" height="400" rx="22" fill="url(#bg)"/>
  <circle cx="85" cy="67" r="7" fill="#FFC1DD"/><circle cx="112" cy="94" r="4" fill="#B7A4ED"/><circle cx="1068" cy="65" r="7" fill="#A5E9E1"/><circle cx="1100" cy="97" r="4" fill="#FFC1DD"/>
  <path d="M55 344C200 310 260 370 398 339C533 309 621 353 761 331C950 302 1030 359 1154 330V400H55V344Z" fill="#FFE1EE" opacity=".72"/>
  <g filter="url(#shadow)">
    <rect x="66" y="66" width="590" height="238" rx="22" fill="white"/>
    <rect x="66" y="66" width="590" height="45" rx="22" fill="#F3D6FF"/>
    <path d="M66 89H656V111H66V89Z" fill="#F3D6FF"/>
    <circle cx="98" cy="89" r="7" fill="#FF93BD"/><circle cx="120" cy="89" r="7" fill="#FFD27A"/><circle cx="142" cy="89" r="7" fill="#91DCC9"/>
    <rect x="96" y="138" width="172" height="20" rx="10" fill="#F1E8FF"/>
    <rect x="96" y="174" width="380" height="16" rx="8" fill="#EEEAF9"/>
    <rect x="96" y="204" width="327" height="16" rx="8" fill="#EEEAF9"/>
    <rect x="96" y="234" width="260" height="16" rx="8" fill="#EEEAF9"/>
    <rect x="96" y="264" width="138" height="16" rx="8" fill="#FFCDE2"/>
    <rect x="285" y="138" width="85" height="20" rx="10" fill="#BCEDE7"/>
    <rect x="384" y="138" width="108" height="20" rx="10" fill="#FFF0B8"/>
    <path d="M511 176l25 25-25 25M580 176l-25 25 25 25" stroke="#9B87D5" stroke-width="12" stroke-linecap="round" stroke-linejoin="round"/>
    <path d="M530 244l29-87" stroke="#FF9BC2" stroke-width="10" stroke-linecap="round"/>
  </g>
  <g font-family="Arial, Helvetica, sans-serif">
    <text x="74" y="48" fill="#9A74BD" font-size="15" font-weight="700" letter-spacing="2">ISA'S LITTLE CODE CORNER ✦</text>
    <text x="72" y="351" fill="#7E7294" font-size="14" font-weight="600">SOFTWARE ENGINEER · GAMES · AI · CREATIVE TECH</text>
  </g>
  <g filter="url(#shadow)">
    <rect x="756" y="121" width="344" height="203" rx="19" fill="#5E528A"/>
    <rect x="770" y="135" width="316" height="166" rx="10" fill="url(#screen)"/>
    <rect x="895" y="324" width="66" height="15" rx="7" fill="#766A9F"/>
    <rect x="845" y="339" width="170" height="13" rx="6" fill="#9386B7"/>
    <path d="M787 155h76M787 177h126M787 199h62" stroke="#EADFFF" stroke-width="8" stroke-linecap="round" opacity=".9"/>
    <path d="M968 245c25-23 47-23 72 0" stroke="#B9F4EC" stroke-width="6" stroke-linecap="round"/>
    <circle cx="977" cy="226" r="5" fill="#FFC5DD"/><circle cx="1031" cy="226" r="5" fill="#FFC5DD"/>
  </g>
  <g filter="url(#shadow)">
    <rect x="662" y="273" width="124" height="60" rx="24" fill="#FFFDFE"/>
    <path d="M690 273v-17M754 273v-17" stroke="#B594D3" stroke-width="6" stroke-linecap="round"/>
    <circle cx="690" cy="252" r="8" fill="#FFC0DC"/><circle cx="754" cy="252" r="8" fill="#FFC0DC"/>
    <rect x="678" y="287" width="92" height="35" rx="16" fill="#F2DFFF"/>
    <circle cx="706" cy="304" r="5" fill="#634F88"/><circle cx="742" cy="304" r="5" fill="#634F88"/>
    <path d="M718 314c4 4 9 4 13 0" stroke="#634F88" stroke-width="3" stroke-linecap="round"/>
    <circle cx="692" cy="315" r="5" fill="#FFACCB" opacity=".75"/><circle cx="756" cy="315" r="5" fill="#FFACCB" opacity=".75"/>
  </g>
  <g fill="#FFE8F2" stroke="#FF9EC5" stroke-width="3" stroke-linejoin="round">
    <path d="M1070 216l5 11 12 1-9 8 3 12-11-6-10 6 2-12-9-8 12-1 5-11Z"/>
    <path d="M713 83l4 9 10 1-7 7 2 10-9-5-9 5 2-10-7-7 10-1 4-9Z"/>
  </g>
  <g font-family="Arial, Helvetica, sans-serif">
    <text x="770" y="82" fill="#6D5C92" font-size="36" font-weight="700">hi, I'm Isa! ♡</text>
    <text x="771" y="108" fill="#9B89B7" font-size="15" font-weight="600">I turn curious ideas into code.</text>
  </g>
</svg>